#!OML:ASF H:\ManfredObstacles\Project 1\Capture day 2\Session 1\male.ASF
:FULLY-SPECIFIED
:DEGREES
501
root 1.41574 16.0069 8.92154 -171.426 -0.0633621 177.386
lowerback -7.70085 -0.617684 -6.12362
upperback 0.333022 -0.302835 0.277469
thorax 4.71058 -0.314718 3.69943
lowerneck -33.9785 -1.77936 0.359434
upperneck 40.2227 -1.03149 0.727998
head 22.529 0.566121 0.358119
rclavicle 1.57785e-015 9.24349e-015
rhumerus -35.7311 -19.5691 -76.4792
rradius 25.7681
rwrist 35.2584
rhand -2.15408 -6.52789
rfingers 7.12502
rthumb 23.5256 -35.1092
lclavicle 1.57785e-015 9.24349e-015
lhumerus -29.3948 18.2854 81.1878
lradius 19.7181
lwrist -53.6435
lhand 3.19571 5.82094
lfingers 7.12502
lthumb 28.6476 33.6448
rfemur -12.2968 6.21819 21.0744
rtibia 26.5268
rfoot -13.7251 -16.922
rtoes -9.79547
lfemur -15.2379 -4.45476 -25.7506
ltibia 27.2217
lfoot -5.47787 19.4412
ltoes 7.4191
502
root 1.41442 16.0067 8.91695 -171.401 -0.0303412 177.388
lowerback -7.67875 -0.610684 -6.12991
upperback 0.324748 -0.294565 0.265487
thorax 4.68845 -0.309919 3.6914
lowerneck -34.1018 -1.7777 0.378589
upperneck 40.2911 -1.03994 0.731474
head 22.6159 0.569046 0.356377
rclavicle 2.74571e-015 -7.25564e-015
rhumerus -35.7533 -19.6342 -76.4402
rradius 25.7398
rwrist 35.5196
rhand -2.21521 -6.39819
rfingers 7.12502
rthumb 23.467 -34.987
lclavicle 2.74571e-015 -7.25564e-015
lhumerus -29.3993 18.1489 81.2449
lradius 19.7748
lwrist -53.4836
lhand 3.20766 5.82551
lfingers 7.12502
lthumb 28.659 33.6474
rfemur -12.31 6.24126 21.067
rtibia 26.5282
rfoot -13.7414 -16.9187
rtoes -9.80148
lfemur -15.2451 -4.45688 -25.7556
ltibia 27.2223
lfoot -5.47809 19.4769
ltoes 7.424
503
root 1.41313 16.0065 8.91245 -171.372 -0.000658105 177.403
lowerback -7.65471 -0.602642 -6.12989
upperback 0.31555 -0.285788 0.259095
thorax 4.66419 -0.304645 3.68573
lowerneck -34.184 -1.76879 0.433455
upperneck 40.3464 -1.04514 0.708221
head 22.6805 0.575184 0.334505
rclavicle 7.45443e-017 8.34896e-015
rhumerus -35.7617 -19.6402 -76.4458
rradius 25.7592
rwrist 35.5717
rhand -2.22363 -6.37344
rfingers 7.12502
rthumb 23.4589 -34.9633
lclavicle 7.45443e-017 8.34896e-015
lhumerus -29.3981 18.0601 81.2835
lradius 19.8094
lwrist -53.4196
lhand 3.23205 5.81307
lfingers 7.12502
lthumb 28.6823 33.631
rfemur -12.3233 6.27435 21.0752
rtibia 26.5216
rfoot -13.7491 -16.9273
rtoes -9.81585
lfemur -15.261 -4.46164 -25.7454
ltibia 27.2302
lfoot -5.47591 19.5145
ltoes 7.42423
504
root 1.41159 16.0064 8.90723 -171.34 0.0294166 177.42
lowerback -7.64384 -0.596065 -6.13258
upperback 0.304864 -0.278093 0.257507
thorax 4.64599 -0.300192 3.68649
lowerneck -34.3536 -1.77084 0.449254
upperneck 40.0421 -1.05975 0.710224
head 23.1959 0.575861 0.324348
rclavicle 3.21783e-015 1.35174e-014
rhumerus -35.758 -19.5843 -76.489
rradius 25.8202
rwrist 35.4123
rhand -2.17563 -6.46429
rfingers 7.12502
rthumb 23.5049 -35.0483
lclavicle 3.21783e-015 1.35174e-014
lhumerus -29.4026 18.0204 81.3052
lradius 19.8279
lwrist -53.4538
lhand 3.25841 5.77839
lfingers 7.12502
lthumb 28.7075 33.5921
rfemur -12.335 6.30476 21.084
rtibia 26.5107
rfoot -13.7568 -16.9327
rtoes -9.8249
lfemur -15.2781 -4.46554 -25.7351
ltibia 27.2402
lfoot -5.47725 19.5554
ltoes 7.42154
505
root 1.40979 16.0064 8.90138 -171.305 0.0597094 177.436
lowerback -7.64439 -0.592506 -6.14061
upperback 0.292324 -0.273499 0.26243
thorax 4.6327 -0.297591 3.69673
lowerneck -34.1356 -1.76823 0.479753
upperneck 40.3783 -1.05321 0.694912
head 22.6895 0.582452 0.318992
rclavicle -1.98163e-015 -3.03147e-015
rhumerus -35.737 -19.4731 -76.5597
rradius 25.9037
rwrist 35.0734
rhand -2.08483 -6.65378
rfingers 7.12502
rthumb 23.592 -35.2266
lclavicle -1.98163e-015 -3.03147e-015
lhumerus -29.41 18.0272 81.3189
lradius 19.8293
lwrist -53.5512
lhand 3.27854 5.73255
lfingers 7.12502
lthumb 28.7267 33.543
rfemur -12.3472 6.32739 21.091
rtibia 26.4991
rfoot -13.7678 -16.9309
rtoes -9.83555
lfemur -15.2941 -4.46925 -25.7264
ltibia 27.2481
lfoot -5.47855 19.5963
ltoes 7.42159
506
root 1.40765 16.0064 8.89475 -171.267 0.0936643 177.448
lowerback -7.66192 -0.592709 -6.15226
upperback 0.284745 -0.272284 0.269877
thorax 4.63463 -0.297332 3.71125
lowerneck -34.06 -1.76677 0.458855
upperneck 40.3481 -1.04464 0.712338
head 22.6451 0.584135 0.333856
rclavicle -4.16827e-015 -1.44616e-014
rhumerus -35.6988 -19.3559 -76.6271
rradius 25.9718
rwrist 34.7571
rhand -2.02168 -6.8279
rfingers 7.12502
rthumb 23.6526 -35.3929
lclavicle -4.16827e-015 -1.44616e-014
lhumerus -29.4086 18.0505 81.3372
lradius 19.8266
lwrist -53.6674
lhand 3.28893 5.68335
lfingers 7.12502
lthumb 28.7366 33.4921
rfemur -12.3607 6.33942 21.0904
rtibia 26.4899
rfoot -13.7849 -16.9139
rtoes -9.83961
lfemur -15.3058 -4.4747 -25.725
ltibia 27.2507
lfoot -5.4766 19.6412
ltoes 7.41701
